<svg width="30" height="30" viewBox="0 0 30 30" fill="none" xmlns="http://www.w3.org/2000/svg">
<rect x="0.5" y="0.5" width="29" height="29" rx="14.5" fill="white" stroke="black"/>
<path d="M22.5 15.6757C22.3686 17.0972 21.8351 18.4519 20.9619 19.5813C20.0887 20.7107 18.912 21.568 17.5693 22.053C16.2266 22.538 14.7736 22.6305 13.3802 22.3198C11.9869 22.0092 10.7108 21.3081 9.70137 20.2986C8.69192 19.2892 7.99084 18.0131 7.68015 16.6198C7.36947 15.2264 7.46203 13.7734 7.94701 12.4307C8.43199 11.088 9.28933 9.91125 10.4187 9.03806C11.5481 8.16486 12.9028 7.63137 14.3243 7.5C13.4921 8.62594 13.0916 10.0132 13.1957 11.4095C13.2998 12.8057 13.9016 14.1183 14.8917 15.1083C15.8817 16.0984 17.1943 16.7002 18.5905 16.8043C19.9868 16.9084 21.3741 16.5079 22.5 15.6757Z" fill="#33324B" stroke="black" stroke-linecap="round" stroke-linejoin="round"/>
</svg>
