<svg width="30" height="30" viewBox="0 0 30 30" fill="none" xmlns="http://www.w3.org/2000/svg">
<path d="M8.8252 25L10.1752 21.95C9.94186 21.7667 9.71686 21.5875 9.5002 21.4125C9.28353 21.2375 9.0752 21.05 8.8752 20.85C8.74186 20.9 8.6127 20.9375 8.4877 20.9625C8.3627 20.9875 8.2252 21 8.0752 21C7.5252 21 7.05436 20.8042 6.6627 20.4125C6.27103 20.0208 6.0752 19.55 6.0752 19C6.0752 18.6667 6.14603 18.3625 6.2877 18.0875C6.42936 17.8125 6.6252 17.5833 6.8752 17.4C6.74186 17.0167 6.6502 16.6292 6.6002 16.2375C6.5502 15.8458 6.5252 15.4333 6.5252 15C6.5252 14.5667 6.5502 14.1542 6.6002 13.7625C6.6502 13.3708 6.74186 12.9833 6.8752 12.6C6.6252 12.4167 6.42936 12.1875 6.2877 11.9125C6.14603 11.6375 6.0752 11.3333 6.0752 11C6.0752 10.45 6.27103 9.97917 6.6627 9.5875C7.05436 9.19583 7.5252 9 8.0752 9C8.2252 9 8.3627 9.0125 8.4877 9.0375C8.6127 9.0625 8.74186 9.1 8.8752 9.15C9.4252 8.55 10.0544 8.05 10.7627 7.65C11.471 7.25 12.2252 6.95 13.0252 6.75C13.1085 6.25 13.3377 5.83333 13.7127 5.5C14.0877 5.16667 14.5252 5 15.0252 5C15.5252 5 15.9627 5.17083 16.3377 5.5125C16.7127 5.85417 16.9419 6.26667 17.0252 6.75C17.8252 6.95 18.5794 7.24583 19.2877 7.6375C19.996 8.02917 20.6252 8.51667 21.1752 9.1C21.3085 9.05 21.4335 9.0125 21.5502 8.9875C21.6669 8.9625 21.7919 8.95 21.9252 8.95C22.4752 8.95 22.946 9.14583 23.3377 9.5375C23.7294 9.92917 23.9252 10.4 23.9252 10.95C23.9252 11.2833 23.8585 11.5792 23.7252 11.8375C23.5919 12.0958 23.4085 12.3167 23.1752 12.5C23.3085 12.9 23.4002 13.3083 23.4502 13.725C23.5002 14.1417 23.5252 14.5667 23.5252 15C23.5252 15.4333 23.5002 15.8542 23.4502 16.2625C23.4002 16.6708 23.3085 17.0667 23.1752 17.45C23.4085 17.6333 23.5919 17.8542 23.7252 18.1125C23.8585 18.3708 23.9252 18.6667 23.9252 19C23.9252 19.55 23.7294 20.0208 23.3377 20.4125C22.946 20.8042 22.4752 21 21.9252 21C21.7919 21 21.6669 20.9875 21.5502 20.9625C21.4335 20.9375 21.3085 20.9 21.1752 20.85C20.9752 21.05 20.771 21.2458 20.5627 21.4375C20.3544 21.6292 20.1252 21.8167 19.8752 22L21.1752 25H19.3252L18.3752 22.8C18.1419 22.9 17.9169 22.9875 17.7002 23.0625C17.4835 23.1375 17.2585 23.2 17.0252 23.25C16.9419 23.7333 16.7127 24.1458 16.3377 24.4875C15.9627 24.8292 15.5252 25 15.0252 25C14.5252 25 14.0877 24.8333 13.7127 24.5C13.3377 24.1667 13.1085 23.75 13.0252 23.25C12.7752 23.2 12.5377 23.1375 12.3127 23.0625C12.0877 22.9875 11.8585 22.9 11.6252 22.8L10.6752 25H8.8252ZM10.7252 20.65L12.2752 17.15C12.0419 16.85 11.8585 16.5167 11.7252 16.15C11.5919 15.7833 11.5252 15.4 11.5252 15C11.5252 14.05 11.871 13.2292 12.5627 12.5375C13.2544 11.8458 14.0752 11.5 15.0252 11.5C15.9752 11.5 16.796 11.8458 17.4877 12.5375C18.1794 13.2292 18.5252 14.05 18.5252 15C18.5252 15.4 18.4544 15.7917 18.3127 16.175C18.171 16.5583 17.9752 16.9 17.7252 17.2L19.2752 20.65C19.4252 20.5167 19.571 20.3958 19.7127 20.2875C19.8544 20.1792 19.9919 20.05 20.1252 19.9C20.0419 19.7667 19.9877 19.6208 19.9627 19.4625C19.9377 19.3042 19.9252 19.15 19.9252 19C19.9252 18.4667 20.1085 18.0083 20.4752 17.625C20.8419 17.2417 21.2919 17.0333 21.8252 17C21.9252 16.6667 22.0002 16.3375 22.0502 16.0125C22.1002 15.6875 22.1252 15.35 22.1252 15C22.1252 14.65 22.1002 14.3042 22.0502 13.9625C22.0002 13.6208 21.9252 13.2833 21.8252 12.95C21.2919 12.9167 20.8419 12.7083 20.4752 12.325C20.1085 11.9417 19.9252 11.4833 19.9252 10.95C19.9252 10.8 19.946 10.6542 19.9877 10.5125C20.0294 10.3708 20.0752 10.2333 20.1252 10.1C19.6419 9.61667 19.1085 9.20833 18.5252 8.875C17.9419 8.54167 17.3252 8.28333 16.6752 8.1C16.4919 8.38333 16.2585 8.60417 15.9752 8.7625C15.6919 8.92083 15.3752 9 15.0252 9C14.6752 9 14.3585 8.92083 14.0752 8.7625C13.7919 8.60417 13.5585 8.38333 13.3752 8.1C12.6919 8.28333 12.0585 8.54583 11.4752 8.8875C10.8919 9.22917 10.3585 9.65 9.8752 10.15C9.9252 10.2833 9.97103 10.4208 10.0127 10.5625C10.0544 10.7042 10.0752 10.85 10.0752 11C10.0752 11.5333 9.9002 11.9875 9.5502 12.3625C9.2002 12.7375 8.75853 12.95 8.2252 13C8.1252 13.3333 8.0502 13.6625 8.0002 13.9875C7.9502 14.3125 7.9252 14.65 7.9252 15C7.9252 15.35 7.9502 15.6875 8.0002 16.0125C8.0502 16.3375 8.1252 16.6667 8.2252 17C8.75853 17.0333 9.2002 17.2417 9.5502 17.625C9.9002 18.0083 10.0752 18.4667 10.0752 19C10.0752 19.15 10.0627 19.2958 10.0377 19.4375C10.0127 19.5792 9.95853 19.7167 9.8752 19.85C10.0085 20 10.146 20.1375 10.2877 20.2625C10.4294 20.3875 10.5752 20.5167 10.7252 20.65ZM12.2252 21.5C12.4085 21.5833 12.596 21.6583 12.7877 21.725C12.9794 21.7917 13.1752 21.85 13.3752 21.9C13.5585 21.6167 13.7919 21.3958 14.0752 21.2375C14.3585 21.0792 14.6752 21 15.0252 21C15.3752 21 15.6919 21.0792 15.9752 21.2375C16.2585 21.3958 16.4919 21.6167 16.6752 21.9C16.8752 21.85 17.0627 21.7917 17.2377 21.725C17.4127 21.6583 17.5919 21.5833 17.7752 21.5L16.3252 18.25C16.1252 18.3333 15.9169 18.3958 15.7002 18.4375C15.4835 18.4792 15.2585 18.5 15.0252 18.5C14.7752 18.5 14.5377 18.475 14.3127 18.425C14.0877 18.375 13.8752 18.3 13.6752 18.2L12.2252 21.5ZM15.0252 16.5C15.4252 16.5 15.7752 16.3583 16.0752 16.075C16.3752 15.7917 16.5252 15.4333 16.5252 15C16.5252 14.6 16.3752 14.25 16.0752 13.95C15.7752 13.65 15.4252 13.5 15.0252 13.5C14.5919 13.5 14.2335 13.65 13.9502 13.95C13.6669 14.25 13.5252 14.6 13.5252 15C13.5252 15.4333 13.6669 15.7917 13.9502 16.075C14.2335 16.3583 14.5919 16.5 15.0252 16.5Z" fill="black"/>
<rect x="0.5" y="0.5" width="29" height="29" rx="14.5" stroke="black"/>
</svg>
